<svg width="610" height="160" viewBox="0 0 610 160" fill="none" xmlns="http://www.w3.org/2000/svg">
<path d="M70.6821 45.28C72.4221 45.34 74.7021 45.4 77.5221 45.46C80.4021 45.52 83.2821 45.55 86.1621 45.55C89.1621 45.55 92.0421 45.52 94.8021 45.46C97.5621 45.4 99.5121 45.37 100.652 45.37C109.772 45.37 116.552 47.02 120.992 50.32C125.492 53.62 127.742 57.88 127.742 63.1C127.742 65.26 127.292 67.54 126.392 69.94C125.492 72.28 123.962 74.47 121.802 76.51C119.642 78.49 116.672 80.11 112.892 81.37C109.172 82.63 104.432 83.26 98.6721 83.26H89.1321V81.46H97.7721C100.832 81.46 103.142 80.65 104.702 79.03C106.322 77.41 107.402 75.28 107.942 72.64C108.542 70 108.842 67.15 108.842 64.09C108.842 58.39 108.182 54.13 106.862 51.31C105.602 48.49 103.382 47.08 100.202 47.08C98.1621 47.08 96.8421 47.59 96.2421 48.61C95.6421 49.63 95.3421 51.7 95.3421 54.82V98.56C95.3421 101.02 95.5821 102.85 96.0621 104.05C96.6021 105.25 97.5921 106.03 99.0321 106.39C100.472 106.75 102.572 106.93 105.332 106.93V109C103.292 108.94 100.622 108.88 97.3221 108.82C94.0221 108.76 90.5121 108.73 86.7921 108.73C84.0321 108.73 81.2721 108.76 78.5121 108.82C75.7521 108.88 73.1421 108.94 70.6821 109V107.2C72.5421 107.08 73.9221 106.84 74.8221 106.48C75.7221 106.12 76.3221 105.4 76.6221 104.32C76.9221 103.24 77.0721 101.62 77.0721 99.46V54.82C77.0721 52.6 76.9221 50.98 76.6221 49.96C76.3221 48.88 75.6921 48.16 74.7321 47.8C73.8321 47.38 72.4821 47.14 70.6821 47.08V45.28ZM163.898 61.03C166.058 61.03 167.738 61.51 168.938 62.47C170.138 63.37 170.978 64.54 171.458 65.98C171.938 67.36 172.178 68.74 172.178 70.12C172.178 72.82 171.398 74.98 169.838 76.6C168.338 78.16 166.358 78.94 163.898 78.94C161.258 78.94 159.248 78.34 157.868 77.14C156.548 75.94 155.888 74.38 155.888 72.46C155.888 70.42 156.308 68.74 157.148 67.42C158.048 66.1 159.158 64.99 160.478 64.09C159.398 64.09 158.438 64.3 157.598 64.72C156.878 65.02 156.188 65.44 155.528 65.98C154.868 66.52 154.298 67.15 153.818 67.87C153.338 68.53 152.948 69.28 152.648 70.12C152.408 70.96 152.288 71.83 152.288 72.73V99.73C152.288 102.61 152.888 104.56 154.088 105.58C155.288 106.6 157.268 107.11 160.028 107.11V109C158.648 108.94 156.578 108.88 153.818 108.82C151.118 108.7 148.328 108.64 145.448 108.64C142.748 108.64 140.018 108.7 137.258 108.82C134.498 108.88 132.428 108.94 131.048 109V107.11C132.908 107.11 134.198 106.66 134.918 105.76C135.698 104.86 136.088 103.15 136.088 100.63V72.1C136.088 69.4 135.728 67.42 135.008 66.16C134.288 64.84 132.968 64.18 131.048 64.18V62.29C132.968 62.47 134.828 62.56 136.628 62.56C139.628 62.56 142.418 62.47 144.998 62.29C147.638 62.05 150.068 61.72 152.288 61.3V67.78C153.068 66.22 154.028 64.96 155.168 64C156.308 62.98 157.598 62.23 159.038 61.75C160.538 61.27 162.158 61.03 163.898 61.03ZM197.529 61.03C202.209 61.03 206.259 61.84 209.679 63.46C213.159 65.02 215.859 67.6 217.779 71.2C219.699 74.8 220.659 79.63 220.659 85.69C220.659 91.75 219.699 96.58 217.779 100.18C215.859 103.78 213.159 106.36 209.679 107.92C206.259 109.48 202.209 110.26 197.529 110.26C192.909 110.26 188.859 109.48 185.379 107.92C181.899 106.36 179.199 103.78 177.279 100.18C175.359 96.58 174.399 91.75 174.399 85.69C174.399 79.63 175.359 74.8 177.279 71.2C179.199 67.6 181.899 65.02 185.379 63.46C188.859 61.84 192.909 61.03 197.529 61.03ZM197.529 62.83C195.729 62.83 194.229 64.63 193.029 68.23C191.829 71.83 191.229 77.65 191.229 85.69C191.229 93.73 191.829 99.55 193.029 103.15C194.229 106.69 195.729 108.46 197.529 108.46C199.329 108.46 200.829 106.69 202.029 103.15C203.229 99.55 203.829 93.73 203.829 85.69C203.829 77.65 203.229 71.83 202.029 68.23C200.829 64.63 199.329 62.83 197.529 62.83Z" fill="black"/>
<path d="M300.055 45.28V47.08C298.015 47.14 296.485 47.38 295.465 47.8C294.445 48.16 293.755 48.88 293.395 49.96C293.095 50.98 292.945 52.6 292.945 54.82V99.46C292.945 101.62 293.095 103.24 293.395 104.32C293.755 105.4 294.445 106.12 295.465 106.48C296.485 106.84 298.015 107.08 300.055 107.2V109C298.555 108.88 296.695 108.82 294.475 108.82C292.255 108.76 290.005 108.73 287.725 108.73C285.205 108.73 282.835 108.76 280.615 108.82C278.395 108.82 276.625 108.88 275.305 109V107.2C277.345 107.08 278.875 106.84 279.895 106.48C280.975 106.12 281.695 105.4 282.055 104.32C282.415 103.24 282.595 101.62 282.595 99.46V50.23L283.045 50.41L260.905 109.36H259.465L236.245 51.04V97.12C236.245 99.64 236.425 101.62 236.785 103.06C237.145 104.44 237.925 105.43 239.125 106.03C240.325 106.63 242.155 107.02 244.615 107.2V109C243.475 108.88 242.005 108.82 240.205 108.82C238.465 108.76 236.815 108.73 235.255 108.73C233.755 108.73 232.255 108.76 230.755 108.82C229.255 108.82 228.025 108.88 227.065 109V107.2C229.045 107.02 230.545 106.66 231.565 106.12C232.585 105.52 233.275 104.53 233.635 103.15C233.995 101.77 234.175 99.88 234.175 97.48V54.82C234.175 52.6 233.995 50.98 233.635 49.96C233.275 48.88 232.585 48.16 231.565 47.8C230.545 47.38 229.045 47.14 227.065 47.08V45.28C228.025 45.34 229.255 45.4 230.755 45.46C232.255 45.52 233.755 45.55 235.255 45.55C236.995 45.55 238.735 45.52 240.475 45.46C242.275 45.4 243.805 45.34 245.065 45.28L264.955 96.4L263.245 97.57L282.775 45.55C283.555 45.55 284.365 45.55 285.205 45.55C286.045 45.55 286.885 45.55 287.725 45.55C290.005 45.55 292.255 45.52 294.475 45.46C296.695 45.4 298.555 45.34 300.055 45.28ZM318.214 109.63C315.694 109.63 313.534 109.15 311.734 108.19C309.934 107.23 308.584 105.91 307.684 104.23C306.784 102.55 306.334 100.63 306.334 98.47C306.334 95.83 306.934 93.7 308.134 92.08C309.334 90.4 310.864 89.05 312.724 88.03C314.644 87.01 316.654 86.17 318.754 85.51C320.914 84.79 322.924 84.13 324.784 83.53C326.704 82.87 328.264 82.12 329.464 81.28C330.724 80.44 331.354 79.33 331.354 77.95V71.83C331.354 69.67 330.994 67.96 330.274 66.7C329.614 65.38 328.684 64.45 327.484 63.91C326.344 63.37 324.964 63.1 323.344 63.1C321.964 63.1 320.494 63.31 318.934 63.73C317.374 64.09 316.144 64.84 315.244 65.98C316.564 66.34 317.644 67.06 318.484 68.14C319.384 69.16 319.834 70.45 319.834 72.01C319.834 73.69 319.264 75.01 318.124 75.97C317.044 76.93 315.664 77.41 313.984 77.41C312.124 77.41 310.744 76.84 309.844 75.7C308.944 74.5 308.494 73.12 308.494 71.56C308.494 69.94 308.884 68.62 309.664 67.6C310.504 66.58 311.584 65.62 312.904 64.72C314.344 63.76 316.174 62.95 318.394 62.29C320.674 61.63 323.194 61.3 325.954 61.3C328.534 61.3 330.754 61.6 332.614 62.2C334.534 62.74 336.124 63.64 337.384 64.9C338.884 66.28 339.874 68.02 340.354 70.12C340.834 72.16 341.074 74.65 341.074 77.59V102.43C341.074 103.93 341.254 105.01 341.614 105.67C342.034 106.27 342.694 106.57 343.594 106.57C344.194 106.57 344.764 106.42 345.304 106.12C345.904 105.82 346.594 105.37 347.374 104.77L348.274 106.3C347.014 107.32 345.724 108.13 344.404 108.73C343.144 109.33 341.524 109.63 339.544 109.63C337.624 109.63 336.064 109.33 334.864 108.73C333.664 108.13 332.764 107.26 332.164 106.12C331.624 104.98 331.354 103.57 331.354 101.89C329.794 104.41 327.934 106.33 325.774 107.65C323.614 108.97 321.094 109.63 318.214 109.63ZM322.534 105.31C324.214 105.31 325.774 104.83 327.214 103.87C328.714 102.91 330.094 101.47 331.354 99.55V81.64C330.694 82.6 329.734 83.44 328.474 84.16C327.214 84.82 325.864 85.51 324.424 86.23C322.984 86.95 321.604 87.79 320.284 88.75C319.024 89.65 317.974 90.82 317.134 92.26C316.294 93.7 315.874 95.53 315.874 97.75C315.874 100.09 316.474 101.95 317.674 103.33C318.874 104.65 320.494 105.31 322.534 105.31ZM382.283 61.3C384.683 61.3 386.633 61.63 388.133 62.29C389.693 62.89 390.983 63.73 392.003 64.81C393.083 65.95 393.833 67.42 394.253 69.22C394.733 71.02 394.973 73.45 394.973 76.51V100.63C394.973 103.15 395.453 104.86 396.413 105.76C397.433 106.66 399.113 107.11 401.453 107.11V109C400.433 108.94 398.843 108.88 396.683 108.82C394.523 108.7 392.393 108.64 390.293 108.64C388.253 108.64 386.213 108.7 384.173 108.82C382.193 108.88 380.693 108.94 379.673 109V107.11C381.713 107.11 383.153 106.66 383.993 105.76C384.833 104.86 385.253 103.15 385.253 100.63V73.99C385.253 72.25 385.103 70.69 384.803 69.31C384.503 67.87 383.873 66.73 382.913 65.89C381.953 64.99 380.513 64.54 378.593 64.54C376.373 64.54 374.393 65.17 372.653 66.43C370.973 67.69 369.623 69.43 368.603 71.65C367.643 73.81 367.163 76.24 367.163 78.94V100.63C367.163 103.15 367.583 104.86 368.423 105.76C369.323 106.66 370.763 107.11 372.743 107.11V109C371.783 108.94 370.313 108.88 368.333 108.82C366.413 108.7 364.403 108.64 362.303 108.64C360.263 108.64 358.133 108.7 355.913 108.82C353.693 108.88 352.043 108.94 350.963 109V107.11C353.303 107.11 354.953 106.66 355.913 105.76C356.933 104.86 357.443 103.15 357.443 100.63V72.37C357.443 69.67 356.993 67.69 356.093 66.43C355.193 65.11 353.483 64.45 350.963 64.45V62.56C352.883 62.74 354.743 62.83 356.543 62.83C358.583 62.83 360.473 62.74 362.213 62.56C364.013 62.32 365.663 61.99 367.163 61.57V71.38C368.723 67.66 370.853 65.05 373.553 63.55C376.313 62.05 379.223 61.3 382.283 61.3ZM417.882 109.63C415.362 109.63 413.202 109.15 411.402 108.19C409.602 107.23 408.252 105.91 407.352 104.23C406.452 102.55 406.002 100.63 406.002 98.47C406.002 95.83 406.602 93.7 407.802 92.08C409.002 90.4 410.532 89.05 412.392 88.03C414.312 87.01 416.322 86.17 418.422 85.51C420.582 84.79 422.592 84.13 424.452 83.53C426.372 82.87 427.932 82.12 429.132 81.28C430.392 80.44 431.022 79.33 431.022 77.95V71.83C431.022 69.67 430.662 67.96 429.942 66.7C429.282 65.38 428.352 64.45 427.152 63.91C426.012 63.37 424.632 63.1 423.012 63.1C421.632 63.1 420.162 63.31 418.602 63.73C417.042 64.09 415.812 64.84 414.912 65.98C416.232 66.34 417.312 67.06 418.152 68.14C419.052 69.16 419.502 70.45 419.502 72.01C419.502 73.69 418.932 75.01 417.792 75.97C416.712 76.93 415.332 77.41 413.652 77.41C411.792 77.41 410.412 76.84 409.512 75.7C408.612 74.5 408.162 73.12 408.162 71.56C408.162 69.94 408.552 68.62 409.332 67.6C410.172 66.58 411.252 65.62 412.572 64.72C414.012 63.76 415.842 62.95 418.062 62.29C420.342 61.63 422.862 61.3 425.622 61.3C428.202 61.3 430.422 61.6 432.282 62.2C434.202 62.74 435.792 63.64 437.052 64.9C438.552 66.28 439.542 68.02 440.022 70.12C440.502 72.16 440.742 74.65 440.742 77.59V102.43C440.742 103.93 440.922 105.01 441.282 105.67C441.702 106.27 442.362 106.57 443.262 106.57C443.862 106.57 444.432 106.42 444.972 106.12C445.572 105.82 446.262 105.37 447.042 104.77L447.942 106.3C446.682 107.32 445.392 108.13 444.072 108.73C442.812 109.33 441.192 109.63 439.212 109.63C437.292 109.63 435.732 109.33 434.532 108.73C433.332 108.13 432.432 107.26 431.832 106.12C431.292 104.98 431.022 103.57 431.022 101.89C429.462 104.41 427.602 106.33 425.442 107.65C423.282 108.97 420.762 109.63 417.882 109.63ZM422.202 105.31C423.882 105.31 425.442 104.83 426.882 103.87C428.382 102.91 429.762 101.47 431.022 99.55V81.64C430.362 82.6 429.402 83.44 428.142 84.16C426.882 84.82 425.532 85.51 424.092 86.23C422.652 86.95 421.272 87.79 419.952 88.75C418.692 89.65 417.642 90.82 416.802 92.26C415.962 93.7 415.542 95.53 415.542 97.75C415.542 100.09 416.142 101.95 417.342 103.33C418.542 104.65 420.162 105.31 422.202 105.31ZM467.551 125.92C464.191 125.92 461.071 125.59 458.191 124.93C455.371 124.27 453.091 123.25 451.351 121.87C449.671 120.55 448.831 118.84 448.831 116.74C448.831 114.76 449.671 113.02 451.351 111.52C453.031 110.02 455.401 108.88 458.461 108.1L459.091 109.54C457.831 110.08 456.841 110.95 456.121 112.15C455.461 113.35 455.131 114.67 455.131 116.11C455.131 118.75 456.361 120.79 458.821 122.23C461.281 123.67 464.521 124.39 468.541 124.39C471.241 124.39 473.791 124.03 476.191 123.31C478.651 122.65 480.631 121.54 482.131 119.98C483.691 118.42 484.471 116.41 484.471 113.95C484.471 112.03 483.781 110.41 482.401 109.09C481.021 107.83 478.291 107.2 474.211 107.2H467.911C465.811 107.2 463.861 107.02 462.061 106.66C460.261 106.3 458.791 105.61 457.651 104.59C456.571 103.51 456.031 102.01 456.031 100.09C456.031 97.93 456.931 95.89 458.731 93.97C460.531 92.05 463.561 90.16 467.821 88.3L468.901 89.11C467.161 90.07 465.601 91.06 464.221 92.08C462.901 93.04 462.241 94.24 462.241 95.68C462.241 97.6 463.621 98.56 466.381 98.56H477.091C479.911 98.56 482.461 98.95 484.741 99.73C487.021 100.45 488.851 101.62 490.231 103.24C491.611 104.86 492.301 106.99 492.301 109.63C492.301 112.45 491.371 115.09 489.511 117.55C487.711 120.07 484.981 122.08 481.321 123.58C477.661 125.14 473.071 125.92 467.551 125.92ZM468.091 89.83C465.031 89.83 462.241 89.35 459.721 88.39C457.201 87.37 455.221 85.81 453.781 83.71C452.341 81.61 451.621 78.91 451.621 75.61C451.621 72.31 452.341 69.61 453.781 67.51C455.221 65.35 457.201 63.79 459.721 62.83C462.241 61.81 465.031 61.3 468.091 61.3C471.271 61.3 474.091 61.81 476.551 62.83C479.011 63.79 480.961 65.35 482.401 67.51C483.841 69.61 484.561 72.31 484.561 75.61C484.561 78.91 483.841 81.61 482.401 83.71C480.961 85.81 479.011 87.37 476.551 88.39C474.091 89.35 471.271 89.83 468.091 89.83ZM468.091 88.21C470.191 88.21 471.811 87.31 472.951 85.51C474.091 83.71 474.661 80.41 474.661 75.61C474.661 70.81 474.091 67.51 472.951 65.71C471.811 63.85 470.191 62.92 468.091 62.92C466.111 62.92 464.521 63.85 463.321 65.71C462.121 67.51 461.521 70.81 461.521 75.61C461.521 80.41 462.121 83.71 463.321 85.51C464.521 87.31 466.111 88.21 468.091 88.21ZM481.411 68.86L479.791 68.23C480.631 66.13 482.071 64.3 484.111 62.74C486.151 61.18 488.281 60.4 490.501 60.4C492.181 60.4 493.501 60.88 494.461 61.84C495.481 62.74 495.991 64.03 495.991 65.71C495.991 67.57 495.481 68.89 494.461 69.67C493.501 70.45 492.481 70.84 491.401 70.84C490.441 70.84 489.541 70.51 488.701 69.85C487.921 69.19 487.471 68.17 487.351 66.79C487.231 65.35 487.681 63.52 488.701 61.3L489.691 61.66C487.291 62.62 485.521 63.64 484.381 64.72C483.301 65.74 482.311 67.12 481.411 68.86ZM520.148 61.3C525.428 61.3 529.568 62.89 532.568 66.07C535.568 69.25 537.068 74.29 537.068 81.19H506.018L505.838 79.48H527.528C527.588 76.54 527.348 73.84 526.808 71.38C526.268 68.86 525.428 66.85 524.288 65.35C523.148 63.85 521.648 63.1 519.788 63.1C517.208 63.1 514.958 64.48 513.038 67.24C511.178 69.94 510.038 74.29 509.618 80.29L509.888 80.74C509.828 81.58 509.768 82.51 509.708 83.53C509.648 84.49 509.618 85.45 509.618 86.41C509.618 90.55 510.248 94.03 511.508 96.85C512.768 99.67 514.418 101.8 516.458 103.24C518.498 104.62 520.568 105.31 522.668 105.31C524.288 105.31 525.848 105.07 527.348 104.59C528.908 104.05 530.378 103.18 531.758 101.98C533.138 100.72 534.368 99.01 535.448 96.85L537.248 97.57C536.528 99.61 535.418 101.62 533.918 103.6C532.418 105.58 530.498 107.2 528.158 108.46C525.818 109.66 523.088 110.26 519.968 110.26C515.768 110.26 512.108 109.33 508.988 107.47C505.868 105.55 503.468 102.82 501.788 99.28C500.108 95.74 499.268 91.54 499.268 86.68C499.268 81.34 500.138 76.78 501.878 73C503.618 69.22 506.048 66.34 509.168 64.36C512.348 62.32 516.008 61.3 520.148 61.3Z" fill="#083B87"/>
</svg>
